<?xml version="1.0" standalone="no"?>
<svg xmlns:xlink="http://www.w3.org/1999/xlink" id="wave" style="transform:rotate(0deg); transition: 0.3s" viewBox="0 0 1440 180" version="1.1" xmlns="http://www.w3.org/2000/svg"><defs><linearGradient id="sw-gradient-0" x1="0" x2="0" y1="1" y2="0"><stop stop-color="rgba(255, 218, 71, 1)" offset="0%"/><stop stop-color="rgba(253, 244, 117, 1)" offset="100%"/></linearGradient></defs><path style="transform:translate(0, 0px); opacity:1" fill="url(#sw-gradient-0)" d="M0,90L21.8,99C43.6,108,87,126,131,138C174.5,150,218,156,262,144C305.5,132,349,102,393,102C436.4,102,480,132,524,138C567.3,144,611,126,655,126C698.2,126,742,144,785,135C829.1,126,873,90,916,75C960,60,1004,66,1047,66C1090.9,66,1135,60,1178,63C1221.8,66,1265,78,1309,93C1352.7,108,1396,126,1440,132C1483.6,138,1527,132,1571,132C1614.5,132,1658,138,1702,144C1745.5,150,1789,156,1833,138C1876.4,120,1920,78,1964,63C2007.3,48,2051,60,2095,54C2138.2,48,2182,24,2225,18C2269.1,12,2313,24,2356,30C2400,36,2444,36,2487,54C2530.9,72,2575,108,2618,129C2661.8,150,2705,156,2749,132C2792.7,108,2836,54,2880,45C2923.6,36,2967,72,3011,96C3054.5,120,3098,132,3120,138L3141.8,144L3141.8,180L3120,180C3098.2,180,3055,180,3011,180C2967.3,180,2924,180,2880,180C2836.4,180,2793,180,2749,180C2705.5,180,2662,180,2618,180C2574.5,180,2531,180,2487,180C2443.6,180,2400,180,2356,180C2312.7,180,2269,180,2225,180C2181.8,180,2138,180,2095,180C2050.9,180,2007,180,1964,180C1920,180,1876,180,1833,180C1789.1,180,1745,180,1702,180C1658.2,180,1615,180,1571,180C1527.3,180,1484,180,1440,180C1396.4,180,1353,180,1309,180C1265.5,180,1222,180,1178,180C1134.5,180,1091,180,1047,180C1003.6,180,960,180,916,180C872.7,180,829,180,785,180C741.8,180,698,180,655,180C610.9,180,567,180,524,180C480,180,436,180,393,180C349.1,180,305,180,262,180C218.2,180,175,180,131,180C87.3,180,44,180,22,180L0,180Z"/></svg>